<svg xmlns="http://www.w3.org/2000/svg" viewBox="0 0 960 960" fill="none" stroke-linecap="square" stroke-miterlimit="10"><clipPath id="a"><path d="M0 0h960v960H0V0z"/></clipPath><g clip-path="url(#a)"><path fill="none" d="M0 0h960v960H0z"/><path fill="none" d="M0 0h960v960H0z"/><path fill="#292929" d="M47.6 745.3V259.9h292.2v485.4H47.6z" stroke="#fff" stroke-width="32" paint-order="stroke markers fill"/><path fill="#292929" d="M464.7 628.8q-20 0-37.4-5.8t-30-19.2q-12.6-13.4-19.8-35-7.2-21.6-7.2-53.2v-154h33.2v154.8q0 23.6 4.8 39.6t13 25.6q8.2 9.6 19.4 13.8 11.2 4.2 24 4.2 13.2 0 24.4-4.2t19.6-13.8q8.4-9.6 13.2-25.6 4.8-16 4.8-39.6V361.6h32v154q0 31.6-7.2 53.2t-19.8 35Q519 617.2 501.9 623q-17.2 5.8-37.2 5.8z" stroke-width="32" stroke-miterlimit="4" stroke="#fff" paint-order="stroke markers fill"/><path fill="none" d="M593.5 230.4h314.4v502.8H593.5V230.4z"/><path fill="#292929" d="M658.3 624l-55.6-262.4h34.4l27.6 142.8q3.6 21.6 7.6 42.4 4 20.8 7.6 42.4h1.6q4.4-21.6 9.2-42.6 4.8-21 9.2-42.2l36.4-142.8h30.4l36.4 142.8 9.6 42 9.6 42.8h1.6l7.2-42.6q3.6-21 7.6-42.2l27.6-142.8h32L843.9 624h-40l-39.6-158q-3.6-15.2-6.6-29.8l-6.2-29.8h-1.6q-3.2 15.2-6.6 29.8-3.4 14.6-6.6 29.8l-38.8 158h-39.6z" stroke-width="32" stroke-miterlimit="4" stroke="#fffeff" paint-order="stroke markers fill"/><path fill="none" d="M907.9 230.4v502.8-502.8z"/><path fill="#292929" d="M593.5 486h314.4v36H593.5v-36z" stroke-width="16" stroke-miterlimit="4" stroke="#fffeff" paint-order="stroke markers fill"/></g></svg>