<?xml version="1.0" encoding="UTF-8" standalone="no"?>
<svg
   xmlns:dc="http://purl.org/dc/elements/1.1/"
   xmlns:cc="http://creativecommons.org/ns#"
   xmlns:rdf="http://www.w3.org/1999/02/22-rdf-syntax-ns#"
   xmlns:svg="http://www.w3.org/2000/svg"
   xmlns="http://www.w3.org/2000/svg"
   xmlns:sodipodi="http://sodipodi.sourceforge.net/DTD/sodipodi-0.dtd"
   xmlns:inkscape="http://www.inkscape.org/namespaces/inkscape"
   id="Layer_1"
   data-name="Layer 1"
   width="418.36"
   height="80"
   viewBox="0 0 418.36 80"
   version="1.1"
   sodipodi:docname="Rakuten kobo Logo 2019.svg"
   inkscape:version="0.92.1 r15371">
  <metadata
     id="metadata37">
    <rdf:RDF>
      <cc:Work
         rdf:about="">
        <dc:format>image/svg+xml</dc:format>
        <dc:type
           rdf:resource="http://purl.org/dc/dcmitype/StillImage" />
        <dc:title>Rakuten-kobo-landscape</dc:title>
      </cc:Work>
    </rdf:RDF>
  </metadata>
  <sodipodi:namedview
     pagecolor="#ffffff"
     bordercolor="#666666"
     borderopacity="1"
     objecttolerance="10"
     gridtolerance="10"
     guidetolerance="10"
     inkscape:pageopacity="0"
     inkscape:pageshadow="2"
     inkscape:window-width="1920"
     inkscape:window-height="1001"
     id="namedview35"
     showgrid="false"
     inkscape:zoom="1.0541161"
     inkscape:cx="209.17999"
     inkscape:cy="40"
     inkscape:window-x="-9"
     inkscape:window-y="-9"
     inkscape:window-maximized="1"
     inkscape:current-layer="Layer_1" />
  <defs
     id="defs4">
    <style
       id="style2">
      .cls-1 {
        fill: #bf2026;
      }
    </style>
  </defs>
  <title
     id="title6">Rakuten-kobo-landscape</title>
  <polygon
     style="fill:#bf2026"
     id="polygon8"
     points="279.09,34.35 291.89,19.23 302.96,19.23 288.31,36.34 304.28,58.81 293.22,58.81 279.26,38.85 279.09,38.85 279.09,58.81 269.85,58.81 269.85,1.43 279.09,1.43 "
     class="cls-1" />
  <path
     style="fill:#bf2026"
     inkscape:connector-curvature="0"
     id="path10"
     d="m 303.45,39 c 0,-13 6.08,-20.72 17.48,-20.72 11.4,0 17.45,7.77 17.45,20.72 0,12.95 -6.07,20.7 -17.45,20.7 -11.38,0 -17.48,-7.7 -17.48,-20.7 m 17.48,14.2 c 6.63,0 7.63,-6.8 7.63,-14.2 0,-7.4 -1,-14.21 -7.63,-14.21 -6.63,0 -7.67,6.8 -7.67,14.21 0,7.41 1,14.2 7.67,14.2"
     class="cls-1" />
  <path
     style="fill:#bf2026"
     inkscape:connector-curvature="0"
     id="path12"
     d="m 352.65,24 h 0.16 A 11.54,11.54 0 0 1 363,18.3 c 9.49,0 13.64,8.07 13.64,20.72 0,11 -3.83,20.7 -16.72,20.7 -10.4,0 -16.54,-5.91 -16.54,-17.72 V 1.43 h 9.23 V 24 Z M 360,53.22 c 5.92,0 6.91,-7.72 6.91,-14.2 0,-7.16 -0.74,-14.81 -6.91,-14.81 -5.57,0 -7.31,8.16 -7.31,14.81 0,9.89 1.49,14.2 7.31,14.2"
     class="cls-1" />
  <path
     style="fill:#bf2026"
     inkscape:connector-curvature="0"
     id="path14"
     d="m 381.34,39 c 0,-13 6.07,-20.72 17.46,-20.72 11.39,0 17.46,7.77 17.46,20.72 0,12.95 -6.07,20.7 -17.46,20.7 -11.39,0 -17.46,-7.7 -17.46,-20.7 m 17.46,14.2 c 6.65,0 7.65,-6.8 7.65,-14.2 0,-7.4 -1,-14.21 -7.65,-14.21 -6.65,0 -7.65,6.8 -7.65,14.21 0,7.41 1,14.2 7.65,14.2"
     class="cls-1" />
  <polygon
     style="fill:#bf2026"
     id="polygon16"
     points="63.42,78.85 204.74,66.61 51.19,66.61 "
     class="cls-1" />
  <path
     style="fill:#bf2026"
     inkscape:connector-curvature="0"
     id="path18"
     d="m 56.5,49.8 c -5.3,0 -9.19,-5.23 -9.19,-11.82 0,-6.59 3.89,-11.82 9.19,-11.82 5.3,0 9,5.22 9,11.82 0,6.6 -3.74,11.82 -9,11.82 z M 65.41,17.14 V 19 A 15.48,15.48 0 0 0 56.5,16.13 c -10.76,0 -18.93,9.81 -18.93,21.86 0,12.05 8.17,21.84 18.93,21.84 A 15.48,15.48 0 0 0 65.41,57 v 1.85 h 9.46 V 17.14 Z"
     class="cls-1" />
  <path
     style="fill:#bf2026"
     inkscape:connector-curvature="0"
     id="path20"
     d="m 141.16,17.14 v 24.48 c 0,4.59 -3.15,8.47 -7.74,8.47 -4.59,0 -7.75,-3.88 -7.75,-8.47 V 17.14 h -9.46 v 24.48 c 0,10 6.87,18.21 16.92,18.21 a 14.48,14.48 0 0 0 8,-2.57 v 1.55 h 9.46 V 17.14 Z"
     class="cls-1" />
  <path
     style="fill:#bf2026"
     inkscape:connector-curvature="0"
     id="path22"
     d="M 229.28,58.81 V 34.33 c 0,-4.59 3.15,-8.47 7.75,-8.47 4.6,0 7.75,3.88 7.75,8.47 v 24.48 h 9.45 V 34.33 c 0,-10 -6.87,-18.21 -16.91,-18.21 a 14.54,14.54 0 0 0 -8,2.57 v -1.55 h -9.46 v 41.67 z"
     class="cls-1" />
  <path
     style="fill:#bf2026"
     inkscape:connector-curvature="0"
     id="path24"
     d="m 10.32,16.64 h 6.45 a 8.07,8.07 0 1 1 0,16.13 h -6.45 z m 0,42.17 V 42.67 h 7 l 12.1,16.14 H 41.8 L 27.17,39.33 A 17.94,17.94 0 0 0 16.77,6.76 H 0.43 v 52.05 z"
     class="cls-1" />
  <path
     style="fill:#bf2026"
     inkscape:connector-curvature="0"
     id="path26"
     d="m 176.11,49 a 5.67,5.67 0 0 1 -3.17,1 c -1.54,0 -4.45,-1.18 -4.45,-5.11 V 27 h 8.08 v -9.86 h -8.08 V 6.76 H 159 v 10.38 h -5 V 27 h 5 v 18 c 0,9.3 7,14.86 14.06,14.86 a 19.38,19.38 0 0 0 9.25,-2.63 z"
     class="cls-1" />
  <polygon
     style="fill:#bf2026"
     id="polygon28"
     points="101.34,17.14 90,31.66 90,3.32 80.26,3.32 80.26,58.81 90,58.81 90,41.69 103.94,58.81 117.19,58.81 98.38,36.67 114.6,17.14 "
     class="cls-1" />
  <path
     style="fill:#bf2026"
     inkscape:connector-curvature="0"
     id="path30"
     d="m 206.21,32.6 h -17 c 2,-9.76 15.19,-10.32 17,0 z M 198,16.08 c -10.94,0 -18.8,9.62 -18.8,21.9 0,12.9 9.86,21.89 19.74,21.89 5,0 11.38,-1.71 16.75,-9.33 l -8.35,-4.82 c -6.46,9.52 -17.23,4.69 -18.47,-4.83 h 27.24 c 2.33,-15 -7.35,-24.81 -18.11,-24.81 z"
     class="cls-1" />
</svg>
