<?xml version="1.0" encoding="utf-8"?>
<!-- Generator: Adobe Illustrator 13.0.0, SVG Export Plug-In . SVG Version: 6.00 Build 14948)  -->
<!DOCTYPE svg PUBLIC "-//W3C//DTD SVG 1.1//EN" "http://www.w3.org/Graphics/SVG/1.1/DTD/svg11.dtd">
<svg version="1.1" id="Layer_1" xmlns="http://www.w3.org/2000/svg" xmlns:xlink="http://www.w3.org/1999/xlink" x="0px" y="0px"
	 width="153.567px" height="61.788px" viewBox="0 0 153.567 61.788" enable-background="new 0 0 153.567 61.788"
	 xml:space="preserve">
<g>
	<path fill="#7686C2" d="M146.478,57.144c0.159-0.848,0.716-1.183,1.237-1.183c0.455,0,1.069,0.28,1.163,1.183H146.478z
		 M149.535,57.457c0-1.216-0.808-2.062-1.839-2.062c-0.948,0-1.915,0.706-1.915,2.155c0,1.126,0.688,2.185,2.082,2.185
		c0.884,0,1.349-0.325,1.608-0.501v-0.65c-0.205,0.167-0.714,0.585-1.534,0.585c-0.799,0-1.497-0.557-1.497-1.562h3.095V57.457z
		 M144.754,53.313h-0.641v6.338h0.641V53.313z M139.92,56.575c0.419-0.455,0.883-0.614,1.191-0.614c0.725,0,1.302,0.67,1.302,1.563
		c0,0.948-0.662,1.645-1.534,1.645c-0.085,0-0.484,0-0.959-0.168V56.575z M139.28,59.419c0.481,0.205,1.011,0.316,1.542,0.316
		c1.386,0,2.249-0.9,2.249-2.267c0-1.068-0.658-2.073-1.829-2.073c-0.689,0-1.118,0.372-1.322,0.53v-2.612h-0.64V59.419z
		 M136.092,55.961c0.873,0,1.505,0.716,1.505,1.6c0,0.882-0.632,1.608-1.505,1.608c-0.874,0-1.516-0.726-1.516-1.608
		C134.576,56.677,135.218,55.961,136.092,55.961 M136.082,55.395c-1.199,0-2.165,0.966-2.165,2.166c0,1.198,0.966,2.174,2.165,2.174
		c1.2,0,2.175-0.976,2.175-2.174C138.257,56.361,137.282,55.395,136.082,55.395 M132.735,53.313h-0.678v5.223l-4.527-5.223h-0.594
		v6.338h0.678v-5.222l4.526,5.222h0.595V53.313z M121.61,58.231c-0.409,0.409-0.847,0.845-1.553,0.845
		c-0.623,0-0.977-0.418-0.977-0.911c0-0.325,0.038-0.623,1.209-1.366L121.61,58.231z M120.466,55.99
		c-0.476-0.456-0.688-0.865-0.688-1.19c0-0.307,0.233-0.753,0.864-0.753c0.577,0,0.839,0.417,0.839,0.781
		C121.48,55.414,120.931,55.775,120.466,55.99 M122.511,58.231c0.435-0.568,0.743-1.154,0.948-1.74h-0.716
		c-0.278,0.67-0.475,0.958-0.688,1.238l-1.162-1.265c0.429-0.26,1.245-0.772,1.245-1.673c0-0.67-0.519-1.357-1.476-1.357
		c-0.922,0-1.544,0.604-1.544,1.412c0,0.436,0.177,0.855,0.752,1.479c-0.892,0.448-1.532,1.097-1.532,1.896
		c0,0.901,0.78,1.514,1.608,1.514c1.171,0,1.849-0.771,2.109-1.012l0.846,0.928h0.893L122.511,58.231z M115.215,55.748
		c-0.214-0.12-0.614-0.353-1.191-0.353c-0.92,0-1.337,0.613-1.337,1.124c0,0.698,0.584,0.996,1.095,1.237
		c0.549,0.26,0.931,0.455,0.931,0.856c0,0.352-0.382,0.557-0.708,0.557c-0.223,0-0.66-0.056-1.348-0.474v0.66
		c0.439,0.231,0.846,0.38,1.339,0.38c1.042,0,1.375-0.752,1.375-1.17c0-0.652-0.537-0.949-0.76-1.069
		c-0.996-0.521-1.284-0.661-1.284-0.995c0-0.289,0.279-0.54,0.707-0.54c0.409,0,0.771,0.177,1.181,0.428V55.748z M108.779,57.144
		c0.158-0.848,0.716-1.183,1.235-1.183c0.456,0,1.071,0.28,1.163,1.183H108.779z M111.838,57.457c0-1.216-0.807-2.062-1.842-2.062
		c-0.948,0-1.913,0.706-1.913,2.155c0,1.126,0.686,2.185,2.082,2.185c0.882,0,1.346-0.325,1.607-0.501v-0.65
		c-0.204,0.167-0.715,0.585-1.532,0.585c-0.801,0-1.498-0.557-1.498-1.562h3.096V57.457z M103.658,55.479v4.172h0.641v-2.955
		c0.39-0.66,0.92-0.735,1.163-0.735c0.735,0,1.004,0.549,1.004,1.256v2.434h0.64v-2.49c0-1.078-0.557-1.766-1.496-1.766
		c-0.596,0-1.005,0.307-1.311,0.716v-0.632H103.658z M100.1,55.479v4.172h0.64v-1.803c0-0.214,0-0.669,0.149-1.004
		c0.195-0.455,0.651-0.79,1.023-0.79c0.363,0,0.67,0.271,0.809,0.39l0.344-0.558c-0.158-0.129-0.596-0.491-0.995-0.491
		c-0.278,0-0.548,0.177-0.631,0.233c-0.345,0.233-0.587,0.594-0.699,0.772v-0.921H100.1z M98.063,58.824
		c-0.159,0.15-0.493,0.448-0.94,0.448c-0.242,0-0.708-0.14-0.708-0.645c0-0.522,0.578-0.876,1.648-1.072V58.824z M99.353,58.917
		c-0.251,0.205-0.455,0.299-0.538,0.299c-0.095,0-0.113-0.048-0.113-0.224v-2.296c0-0.468-0.222-1.301-1.411-1.301
		c-0.679,0-1.153,0.335-1.356,0.511v0.659c0.361-0.328,0.752-0.604,1.299-0.604c0.782,0,0.829,0.531,0.829,0.801v0.372
		c-1.731,0.308-2.286,0.859-2.286,1.541c0,0.615,0.491,1.06,1.076,1.06c0.372,0,0.698-0.084,1.219-0.473
		c0.037,0.195,0.111,0.473,0.455,0.473c0.11,0,0.306-0.009,0.826-0.38V58.917z M92.67,56.751c1.264,0,1.617,0.614,1.617,1.145
		c0,0.54-0.233,1.143-1.599,1.143h-1.125v-2.288H92.67z M92.25,53.924c1.024,0,1.478,0.308,1.478,1.09
		c0,0.688-0.417,1.125-1.478,1.125h-0.688v-2.215H92.25z M90.867,53.313v6.338h2.295c1.311,0,1.868-0.975,1.868-1.7
		c0-0.539-0.269-1.394-1.496-1.627c0.251-0.103,0.938-0.455,0.938-1.367c0-1.282-1.077-1.644-2.017-1.644H90.867z M87.78,55.479
		h-0.696l-1.256,2.63l-1.328-2.63h-0.697l1.69,3.319l-1.439,2.99h0.687L87.78,55.479z M80.361,56.575
		c0.418-0.455,0.882-0.614,1.189-0.614c0.727,0,1.302,0.67,1.302,1.563c0,0.948-0.66,1.645-1.534,1.645
		c-0.084,0-0.484,0-0.957-0.168V56.575z M79.719,59.419c0.483,0.205,1.013,0.316,1.542,0.316c1.386,0,2.25-0.9,2.25-2.267
		c0-1.068-0.659-2.073-1.83-2.073c-0.688,0-1.115,0.372-1.32,0.53v-2.612h-0.642V59.419z"/>
	<rect x="115.407" fill="#B0BB36" width="6.596" height="48.23"/>
	<polygon fill="#B0BB36" points="145.684,47.214 130.572,31.917 144.746,15.691 136.828,15.677 122.002,31.977 138.003,48.23 
		146.69,48.23 	"/>
	<path fill="#7686C2" d="M93.342,15.039L93.342,15.039c-9.343,0-16.913,7.566-16.913,16.912c0,9.329,7.576,16.891,16.913,16.891
		c9.328,0,16.898-7.562,16.899-16.891C110.24,22.608,102.677,15.039,93.342,15.039 M93.342,42.254
		c-5.699-0.013-10.298-4.62-10.312-10.303c0.014-5.689,4.613-10.298,10.312-10.312c5.686,0.014,10.298,4.623,10.298,10.312
		C103.64,37.641,99.028,42.241,93.342,42.254"/>
	<path fill="#154722" d="M55.964,15.334c-9.334,0-16.9,7.572-16.9,16.902c0,9.335,7.566,16.908,16.9,16.908
		c9.336,0,16.9-7.573,16.9-16.908C72.864,22.906,65.3,15.334,55.964,15.334 M45.658,32.236c0.005-5.694,4.611-10.295,10.306-10.31
		c5.694,0.015,10.298,4.616,10.313,10.31c-0.015,5.69-4.619,10.293-10.313,10.303C50.269,42.529,45.663,37.926,45.658,32.236"/>
	<path fill="#429644" d="M27.222,31.747c-0.013-5.686-4.617-10.011-10.313-10.011c-5.59,0-10.308,4.444-10.308,9.997v16.466H0.01
		L0,31.424c0-8.625,7.777-16.288,16.909-16.288c9.128,0,16.897,7.65,16.897,16.288v16.774h-6.584V31.747z"/>
	<path fill="#B0BB36" d="M147.92,19.206v-2.873h-1.071v-0.606h2.822v0.606h-1.045v2.873H147.92z M150.087,19.206v-3.479h1.101
		l0.649,2.401l0.624-2.401h1.106v3.479h-0.672v-2.771l-0.754,2.771h-0.633l-0.75-2.771v2.771H150.087z"/>
</g>
</svg>
