<?xml version="1.0" encoding="utf-8"?>
<svg viewBox="0 0 219.504 86" xmlns="http://www.w3.org/2000/svg">
  <path fill-rule="evenodd" clip-rule="evenodd" fill="#FF9900" d="M134.49,69.526c-12.391,9.145-30.354,14.007-45.822,14.007 c-21.679,0-41.201-8.014-55.973-21.353c-1.16-1.048-0.125-2.479,1.269-1.667c15.938,9.274,35.649,14.86,56.006,14.86 c13.732,0,28.828-2.851,42.719-8.742C134.783,65.744,136.54,68.013,134.49,69.526z"/>
  <path fill-rule="evenodd" clip-rule="evenodd" fill="#FF9900" d="M139.646,63.641c-1.585-2.029-10.475-0.962-14.47-0.483 c-1.21,0.146-1.398-0.912-0.308-1.678c7.093-4.981,18.714-3.543,20.065-1.875c1.361,1.683-0.357,13.334-7.004,18.894 c-1.022,0.855-1.995,0.399-1.542-0.73C137.884,74.033,141.232,65.671,139.646,63.641z"/>
  <path fill-rule="evenodd" clip-rule="evenodd" d="M125.458,26.289v-4.841c0.004-0.737,0.558-1.228,1.228-1.226l21.695-0.002 c0.693,0,1.25,0.504,1.25,1.221v4.152c-0.006,0.697-0.593,1.605-1.633,3.047l-11.238,16.045c4.171-0.098,8.585,0.527,12.375,2.658 c0.854,0.479,1.083,1.19,1.151,1.888v5.166c0,0.711-0.78,1.535-1.599,1.105c-6.676-3.497-15.538-3.879-22.922,0.044 c-0.754,0.401-1.543-0.41-1.543-1.123v-4.909c0-0.786,0.015-2.13,0.808-3.327l13.02-18.679l-11.336-0.001 C126.018,27.508,125.462,27.014,125.458,26.289z"/>
  <path fill-rule="evenodd" clip-rule="evenodd" d="M46.321,56.521h-6.601c-0.628-0.042-1.129-0.513-1.181-1.116l0.005-33.874 c0-0.678,0.569-1.219,1.273-1.219l6.147-0.002c0.643,0.033,1.159,0.519,1.199,1.138v4.422h0.124 c1.602-4.277,4.621-6.273,8.686-6.273c4.128,0,6.716,1.997,8.564,6.273c1.603-4.277,5.237-6.273,9.119-6.273 c2.772,0,5.792,1.141,7.64,3.707c2.094,2.852,1.665,6.985,1.665,10.621l-0.006,21.378c0,0.676-0.569,1.219-1.273,1.219H75.09 c-0.663-0.043-1.184-0.567-1.184-1.217l-0.002-17.958c0-1.424,0.123-4.989-0.186-6.343c-0.493-2.282-1.971-2.924-3.88-2.924 c-1.603,0-3.267,1.069-3.945,2.78c-0.677,1.711-0.616,4.562-0.616,6.487v17.957c0,0.676-0.569,1.219-1.272,1.219h-6.593 c-0.663-0.043-1.185-0.567-1.185-1.217l-0.006-17.958c0-3.778,0.616-9.337-4.065-9.337c-4.745,0-4.56,5.417-4.56,9.337 l-0.002,17.957C47.595,55.979,47.024,56.521,46.321,56.521z"/>
  <path fill-rule="evenodd" clip-rule="evenodd" d="M168.307,19.597c9.796,0,15.093,8.413,15.093,19.104 c0,10.335-5.852,18.534-15.093,18.534c-9.611,0-14.849-8.413-14.849-18.891C153.458,27.794,158.757,19.597,168.307,19.597z M168.367,26.512c-4.867,0-5.174,6.628-5.174,10.763c0,4.134-0.061,12.973,5.114,12.973c5.115,0,5.36-7.128,5.36-11.475 c0-2.851-0.123-6.273-0.987-8.983C171.941,27.438,170.461,26.512,168.367,26.512z"/>
  <path fill-rule="evenodd" clip-rule="evenodd" d="M196.105,56.521h-6.576c-0.661-0.043-1.185-0.567-1.185-1.217l-0.011-33.887 c0.056-0.62,0.603-1.105,1.268-1.105l6.122-0.002c0.577,0.03,1.052,0.423,1.173,0.948v5.182h0.125 c1.849-4.635,4.435-6.844,8.994-6.844c2.957,0,5.854,1.069,7.701,3.993c1.725,2.708,1.725,7.27,1.725,10.549v21.316 c-0.072,0.6-0.612,1.066-1.265,1.066h-6.615c-0.611-0.039-1.104-0.488-1.175-1.066V37.062c0-3.707,0.432-9.125-4.128-9.125 c-1.603,0-3.081,1.069-3.82,2.708c-0.925,2.068-1.049,4.134-1.049,6.417v18.24C197.379,55.979,196.809,56.521,196.105,56.521z"/>
  <path fill-rule="evenodd" clip-rule="evenodd" d="M108.164,40.344c0,2.573,0.061,4.715-1.236,7.002c-1.049,1.856-2.717,3-4.568,3 c-2.531,0-4.013-1.93-4.013-4.787c0-5.621,5.042-6.643,9.818-6.643V40.344z M114.817,56.437c-0.436,0.393-1.066,0.418-1.559,0.153 c-2.191-1.821-2.584-2.663-3.783-4.397c-3.623,3.69-6.188,4.798-10.882,4.798c-5.556,0-9.879-3.43-9.879-10.288 c0-5.357,2.902-9,7.039-10.787c3.58-1.572,8.582-1.857,12.411-2.287v-0.857c0-1.572,0.123-3.428-0.804-4.786 c-0.803-1.215-2.346-1.715-3.705-1.715c-2.517,0-4.754,1.29-5.305,3.963c-0.114,0.595-0.548,1.184-1.146,1.214l-6.397-0.693 c-0.541-0.122-1.141-0.555-0.986-1.38c1.472-7.76,8.48-10.104,14.76-10.104c3.212,0,7.409,0.855,9.941,3.286 c3.212,3,2.902,7.002,2.902,11.36v10.281c0,3.094,1.285,4.45,2.491,6.116c0.422,0.602,0.516,1.314-0.022,1.754 c-1.348,1.131-3.743,3.211-5.061,4.384L114.817,56.437z"/>
  <path fill-rule="evenodd" clip-rule="evenodd" d="M21.64,40.344c0,2.573,0.062,4.715-1.234,7.002c-1.048,1.856-2.717,3-4.569,3 c-2.531,0-4.013-1.93-4.013-4.787c0-5.621,5.043-6.643,9.816-6.643V40.344z M28.295,56.437c-0.436,0.393-1.067,0.418-1.559,0.153 c-2.193-1.821-2.586-2.663-3.783-4.397c-3.624,3.69-6.189,4.798-10.881,4.798c-5.557,0-9.879-3.43-9.879-10.288 c0-5.357,2.901-9,7.039-10.787c3.581-1.572,8.583-1.857,12.409-2.287v-0.857c0-1.572,0.125-3.428-0.801-4.786 c-0.804-1.215-2.347-1.715-3.705-1.715c-2.518,0-4.757,1.29-5.305,3.963c-0.115,0.595-0.548,1.184-1.147,1.214l-6.396-0.693 C3.745,30.632,3.144,30.2,3.3,29.374C4.77,21.614,11.778,19.27,18.06,19.27c3.211,0,7.41,0.855,9.941,3.286 c3.21,3,2.902,7.002,2.902,11.36v10.281c0,3.094,1.284,4.45,2.49,6.116c0.421,0.602,0.517,1.314-0.021,1.754 c-1.349,1.131-3.745,3.211-5.062,4.384L28.295,56.437z"/>
</svg>
